HIERARCHY
ROOT Hips
{
    OFFSET   0.000000   0.000000   0.000000
    CHANNELS 6 Xposition Yposition Zposition Zrotation Xrotation Yrotation
    JOINT Chest
    {
        OFFSET   0.000000   8.007230   0.000000
        CHANNELS 3 Zrotation Xrotation Yrotation
        JOINT Chest2
        {
            OFFSET   0.000000  22.077100   0.000000
            CHANNELS 3 Zrotation Xrotation Yrotation
            JOINT Neck
            {
                OFFSET   0.000000  23.254800  -0.000021
                CHANNELS 3 Zrotation Xrotation Yrotation
                JOINT Head
                {
                    OFFSET   0.000000  14.370000   1.956610
                    CHANNELS 3 Zrotation Xrotation Yrotation
                    End Site
                    {
                        OFFSET   0.000000  19.566000   0.000000
                    }
                }
            }
            JOINT LeftCollar
            {
                OFFSET   3.911900  19.017000  -0.467063
                CHANNELS 3 Zrotation Xrotation Yrotation
                JOINT LeftShoulder
                {
                    OFFSET  10.383700   0.000000   0.000000
                    CHANNELS 3 Zrotation Xrotation Yrotation
                    JOINT LeftElbow
                    {
                        OFFSET  26.662100   0.001529   0.000325
                        CHANNELS 3 Zrotation Xrotation Yrotation
                        JOINT LeftWrist
                        {
                            OFFSET  28.869000  -0.000011  -0.000096
                            CHANNELS 3 Zrotation Xrotation Yrotation
                            JOINT LeftFinger0
                            {
                                OFFSET   2.044650  -2.323460   3.252850
                                CHANNELS 3 Zrotation Xrotation Yrotation
                                JOINT LeftFinger01
                                {
                                    OFFSET   3.088130   0.000000   0.000000
                                    CHANNELS 3 Zrotation Xrotation Yrotation
                                    JOINT LeftFinger02
                                    {
                                        OFFSET   2.639460   0.000000   0.000000
                                        CHANNELS 3 Zrotation Xrotation Yrotation
                                        End Site
                                        {
                                            OFFSET   2.582190   0.000000   0.000000
                                        }
                                    }
                                }
                            }
                            JOINT LeftFinger1
                            {
                                OFFSET   8.364480   0.000000   3.252850
                                CHANNELS 3 Zrotation Xrotation Yrotation
                                JOINT LeftFinger11
                                {
                                    OFFSET   4.646930   0.000000   0.000000
                                    CHANNELS 3 Zrotation Xrotation Yrotation
                                    JOINT LeftFinger12
                                    {
                                        OFFSET   2.323460   0.000000   0.000000
                                        CHANNELS 3 Zrotation Xrotation Yrotation
                                        End Site
                                        {
                                            OFFSET   2.273050   0.000000   0.000000
                                        }
                                    }
                                }
                            }
                            JOINT LeftFinger2
                            {
                                OFFSET   8.364480   0.000016   1.078090
                                CHANNELS 3 Zrotation Xrotation Yrotation
                                JOINT LeftFinger21
                                {
                                    OFFSET   5.111620   0.000000   0.000000
                                    CHANNELS 3 Zrotation Xrotation Yrotation
                                    JOINT LeftFinger22
                                    {
                                        OFFSET   2.788160   0.000017   0.000000
                                        CHANNELS 3 Zrotation Xrotation Yrotation
                                        End Site
                                        {
                                            OFFSET   2.727660   0.000000   0.000000
                                        }
                                    }
                                }
                            }
                            JOINT LeftFinger3
                            {
                                OFFSET   7.899780   0.000015  -1.078090
                                CHANNELS 3 Zrotation Xrotation Yrotation
                                JOINT LeftFinger31
                                {
                                    OFFSET   4.646920   0.000000   0.000000
                                    CHANNELS 3 Zrotation Xrotation Yrotation
                                    JOINT LeftFinger32
                                    {
                                        OFFSET   2.323470   0.000000   0.000000
                                        CHANNELS 3 Zrotation Xrotation Yrotation
                                        End Site
                                        {
                                            OFFSET   2.273050   0.000000   0.000000
                                        }
                                    }
                                }
                            }
                            JOINT LeftFinger4
                            {
                                OFFSET   7.435090   0.000000  -3.252850
                                CHANNELS 3 Zrotation Xrotation Yrotation
                                JOINT LeftFinger41
                                {
                                    OFFSET   3.717550   0.000000   0.000000
                                    CHANNELS 3 Zrotation Xrotation Yrotation
                                    JOINT LeftFinger42
                                    {
                                        OFFSET   1.858760   0.000000   0.000000
                                        CHANNELS 3 Zrotation Xrotation Yrotation
                                        End Site
                                        {
                                            OFFSET   1.818440   0.000000   0.000000
                                        }
                                    }
                                }
                            }
                        }
                    }
                }
            }
            JOINT RightCollar
            {
                OFFSET  -3.911900  19.017000  -0.467062
                CHANNELS 3 Zrotation Xrotation Yrotation
                JOINT RightShoulder
                {
                    OFFSET -10.383700   0.000015   0.000000
                    CHANNELS 3 Zrotation Xrotation Yrotation
                    JOINT RightElbow
                    {
                        OFFSET -26.662100   0.001341   0.000385
                        CHANNELS 3 Zrotation Xrotation Yrotation
                        JOINT RightWrist
                        {
                            OFFSET -28.869000   0.000025  -0.000080
                            CHANNELS 3 Zrotation Xrotation Yrotation
                            JOINT RightFinger0
                            {
                                OFFSET  -2.044650  -2.323490   3.252850
                                CHANNELS 3 Zrotation Xrotation Yrotation
                                JOINT RightFinger01
                                {
                                    OFFSET  -3.088130   0.000000   0.000000
                                    CHANNELS 3 Zrotation Xrotation Yrotation
                                    JOINT RightFinger02
                                    {
                                        OFFSET  -2.639460   0.000000   0.000000
                                        CHANNELS 3 Zrotation Xrotation Yrotation
                                        End Site
                                        {
                                            OFFSET  -2.582190   0.000000   0.000000
                                        }
                                    }
                                }
                            }
                            JOINT RightFinger1
                            {
                                OFFSET  -8.364480   0.000000   3.252850
                                CHANNELS 3 Zrotation Xrotation Yrotation
                                JOINT RightFinger11
                                {
                                    OFFSET  -4.646930   0.000000   0.000000
                                    CHANNELS 3 Zrotation Xrotation Yrotation
                                    JOINT RightFinger12
                                    {
                                        OFFSET  -2.323470   0.000000   0.000000
                                        CHANNELS 3 Zrotation Xrotation Yrotation
                                        End Site
                                        {
                                            OFFSET  -2.273050   0.000000   0.000000
                                        }
                                    }
                                }
                            }
                            JOINT RightFinger2
                            {
                                OFFSET  -8.364480   0.000000   1.078090
                                CHANNELS 3 Zrotation Xrotation Yrotation
                                JOINT RightFinger21
                                {
                                    OFFSET  -5.111610   0.000000   0.000000
                                    CHANNELS 3 Zrotation Xrotation Yrotation
                                    JOINT RightFinger22
                                    {
                                        OFFSET  -2.788160   0.000000   0.000000
                                        CHANNELS 3 Zrotation Xrotation Yrotation
                                        End Site
                                        {
                                            OFFSET  -2.727660   0.000000   0.000000
                                        }
                                    }
                                }
                            }
                            JOINT RightFinger3
                            {
                                OFFSET  -7.899780   0.000000  -1.078090
                                CHANNELS 3 Zrotation Xrotation Yrotation
                                JOINT RightFinger31
                                {
                                    OFFSET  -4.646920   0.000000   0.000000
                                    CHANNELS 3 Zrotation Xrotation Yrotation
                                    JOINT RightFinger32
                                    {
                                        OFFSET  -2.323470   0.000000   0.000000
                                        CHANNELS 3 Zrotation Xrotation Yrotation
                                        End Site
                                        {
                                            OFFSET  -2.273050   0.000000   0.000000
                                        }
                                    }
                                }
                            }
                            JOINT RightFinger4
                            {
                                OFFSET  -7.435090   0.000000  -3.252850
                                CHANNELS 3 Zrotation Xrotation Yrotation
                                JOINT RightFinger41
                                {
                                    OFFSET  -3.717550   0.000000   0.000000
                                    CHANNELS 3 Zrotation Xrotation Yrotation
                                    JOINT RightFinger42
                                    {
                                        OFFSET  -1.858770   0.000000   0.000000
                                        CHANNELS 3 Zrotation Xrotation Yrotation
                                        End Site
                                        {
                                            OFFSET  -1.818440   0.000000   0.000000
                                        }
                                    }
                                }
                            }
                        }
                    }
                }
            }
        }
    }
    JOINT LeftHip
    {
        OFFSET   9.783010   0.000000   0.000000
        CHANNELS 3 Zrotation Xrotation Yrotation
        JOINT LeftKnee
        {
            OFFSET   0.000070 -41.789100   0.000028
            CHANNELS 3 Zrotation Xrotation Yrotation
            JOINT LeftAnkle
            {
                OFFSET   0.000087 -41.133200  -0.000100
                CHANNELS 3 Zrotation Xrotation Yrotation
                JOINT LeftToe
                {
                    OFFSET   0.000000  -6.358960  14.674500
                    CHANNELS 3 Zrotation Xrotation Yrotation
                    End Site
                    {
                        OFFSET   0.000000   0.000000   3.913200
                    }
                }
            }
        }
    }
    JOINT RightHip
    {
        OFFSET  -9.783020   0.000000   0.000000
        CHANNELS 3 Zrotation Xrotation Yrotation
        JOINT RightKnee
        {
            OFFSET   0.000044 -41.789100  -0.000870
            CHANNELS 3 Zrotation Xrotation Yrotation
            JOINT RightAnkle
            {
                OFFSET  -0.000090 -41.133200  -0.000245
                CHANNELS 3 Zrotation Xrotation Yrotation
                JOINT RightToe
                {
                    OFFSET   0.000000  -6.358960  14.674500
                    CHANNELS 3 Zrotation Xrotation Yrotation
                    End Site
                    {
                        OFFSET   0.000000   0.000000   3.913200
                    }
                }
            }
        }
    }
}
MOTION
Frames: 4
Frame Time:   0.016667
  1.113620  90.138900   0.745930  -0.620273   0.452955  -2.113790  -0.448068   0.759247  -0.353273  -0.891568   1.521230  -0.700716   2.449750  -0.440548   0.011876   4.025940  -0.889875   4.334440  -3.818720  -2.990070   6.280420 -73.904900  16.279700   3.411680  -2.993850  -5.413780 -12.908600  13.200700   3.072520   7.587030  36.772800  24.843100 -64.865100 -25.437000  -0.003361   0.007582  -7.718500  -0.004359   0.003318 -28.448300   7.802250 -14.059100 -24.063900  -0.009987  -0.001600 -16.855400  -0.003425   0.003775 -28.473200   1.765240  -3.251580 -36.333400  -0.000478  -0.003338 -24.198000  -0.009734  -0.003736 -27.381500   1.703010  -3.284570 -28.825900  -0.008215  -0.007746 -19.198100  -0.001590  -0.007140 -27.955200   0.322373  -0.598374 -41.923500  -0.009803  -0.008250 -27.929000   0.005188  -0.005884  10.494200   2.536840   4.605860  70.660800   8.046580  -1.308510   1.737000  -6.574680  11.028800 -14.302100 -19.898800   0.621932 -39.116100  33.261800  70.546500  28.676400  -0.000089   0.000090   9.338200  -0.005420   0.001920  26.663200   0.826847   1.630730  21.825100  -0.002978   0.002329  15.286000  -0.004717   0.004177  25.638000  -1.341280  -2.792170  25.670700  -0.002936  -0.002482  17.096700   0.006010   0.003438  27.443100  -2.171710  -4.172010  29.355200   0.004239  -0.003969  19.550600   0.003932  -0.002115  33.589700  -3.330280  -4.998910  50.602700   0.003856   0.005765  33.701400   0.003437  -0.001181   0.429543   0.558665   1.407680   0.649006   1.161160  11.565700  -5.589530  -3.770960   5.617300  -0.000000   0.000000   0.000000   1.048260   0.047815  -3.540550   0.251132   1.627000  -7.013630 -10.378800   1.865510   0.500361   0.000000   0.000000   0.000000
  1.113530  90.138900   0.732333  -0.621751   0.437672  -2.113920  -0.448996   0.775125  -0.353262  -0.893325   1.552980  -0.700540   2.464860  -0.432935   0.012017   4.050500  -0.874349   4.324040  -3.819180  -2.988580   6.270560 -73.883300  16.302200   3.398040  -2.997900  -5.428210 -12.914800  13.200700   3.072470   7.586990  36.775000  24.854800 -64.876300 -25.431400  -0.003356   0.007575  -7.715700  -0.004356   0.003320 -28.455000   7.803930 -14.061700 -24.069800  -0.009987  -0.001588 -16.855400  -0.003425   0.003782 -28.473000   1.766870  -3.254580 -36.341800  -0.000464  -0.003337 -24.203600  -0.009736  -0.003736 -27.381100   1.704610  -3.287590 -28.837100  -0.008204  -0.007736 -19.205600  -0.001590  -0.007132 -27.954800   0.322406  -0.598567 -41.927900  -0.009806  -0.008242 -27.928600   0.005186  -0.005878  10.494800   2.530310   4.605930  70.652800   8.069130  -1.308770   1.748980  -6.583720  11.031000 -14.276000 -19.888200   0.645354 -39.120400  33.268700  70.541200  28.688400  -0.000097   0.000115   9.344190  -0.005419   0.001919  26.666700   0.824966   1.632530  21.827900  -0.002977   0.002328  15.284600  -0.004717   0.004176  25.671700  -1.312110  -2.727700  25.702900  -0.002936  -0.002482  17.118100   0.006009   0.003438  27.444200  -2.163040  -4.155880  29.350200   0.004241  -0.003968  19.547200   0.003933  -0.002113  33.609300  -3.312330  -4.968300  50.629700   0.003856   0.005762  33.719400   0.003437  -0.001179   0.428916   0.500393   1.407680   0.650847   1.228660  11.576200  -5.590730  -3.763760   5.608960  -0.000000   0.000000   0.000000   1.048120   0.046425  -3.540490   0.248235   1.641650  -7.014330 -10.379000   1.867270   0.502744   0.000000   0.000000   0.000000
  1.113450  90.138900   0.709427  -0.624929   0.410555  -2.114100  -0.451025   0.802713  -0.353228  -0.897220   1.608150  -0.700211   2.489870  -0.417781   0.012251   4.091200  -0.843369   4.306950  -3.819840  -2.985270   6.260640 -73.847100  16.345400   3.369610  -3.004920  -5.453890 -12.924200  13.200700   3.072410   7.586960  36.787200  24.870900 -64.891800 -25.418600  -0.003337   0.007565  -7.709320  -0.004345   0.003322 -28.465400   7.807740 -14.066700 -24.079200  -0.009983  -0.001558 -16.855400  -0.003420   0.003805 -28.472500   1.770430  -3.261090 -36.356300  -0.000430  -0.003331 -24.213300  -0.009742  -0.003734 -27.380400   1.708100  -3.294140 -28.856000  -0.008177  -0.007710 -19.218100  -0.001590  -0.007110 -27.954400   0.322468  -0.598759 -41.935200  -0.009814  -0.008219 -27.928100   0.005179  -0.005863  10.495800   2.520640   4.606040  70.639600   8.103950  -1.309080   1.768380  -6.592610  11.040100 -14.236900 -19.870800   0.679262 -39.128500  33.282600  70.530500  28.710100  -0.000110   0.000147   9.355060  -0.005419   0.001916  26.670300   0.821171   1.634320  21.830800  -0.002976   0.002326  15.281500  -0.004718   0.004174  25.724600  -1.267130  -2.628230  25.753600  -0.002933  -0.002482  17.151900   0.006008   0.003438  27.445400  -2.154070  -4.138510  29.341500   0.004244  -0.003966  19.541400   0.003933  -0.002110  33.630500  -3.294370  -4.937700  50.659000   0.003855   0.005760  33.738800   0.003438  -0.001176   0.428288   0.442120   1.407750   0.652511   1.296110  11.593400  -5.592600  -3.751250   5.592510  -0.000000   0.000000   0.000000   1.047870   0.045035  -3.540370   0.243286   1.663070  -7.017390 -10.379300   1.871010   0.508541   0.000000   0.000000   0.000000
  1.115270  90.138800   0.690579  -0.629117   0.385391  -2.114180  -0.453663   0.827405  -0.353179  -0.902356   1.657560  -0.699900   2.509540  -0.401594   0.012485   4.123250  -0.809980   4.296040  -3.820970  -2.981030   6.260560 -73.816100  16.393300   3.334210  -3.011220  -5.477910 -12.930400  13.204400   3.072960   7.586970  36.805800  24.876000 -64.897700 -25.398800  -0.003294   0.007563  -7.697830  -0.004326   0.003320 -28.471200   7.812940 -14.072800 -24.084900  -0.009974  -0.001513 -16.858200  -0.003408   0.003844 -28.471800   1.775530  -3.270390 -36.367100  -0.000377  -0.003320 -24.220500  -0.009750  -0.003727 -27.381500   1.713130  -3.303480 -28.870000  -0.008133  -0.007671 -19.227400  -0.001588  -0.007073 -27.956700   0.322551  -0.597355 -41.939700  -0.009826  -0.008181 -27.930500   0.005166  -0.005841  10.499000   2.515530   4.606100  70.628800   8.124180  -1.308520   1.784150  -6.589860  11.060900 -14.215200 -19.856800   0.695596 -39.137600  33.299500  70.517500  28.730100  -0.000115   0.000156   9.365060  -0.005419   0.001912  26.662000   0.816182   1.625330  21.823900  -0.002976   0.002323  15.275800  -0.004718   0.004177  25.762600  -1.233130  -2.552710  25.789900  -0.002926  -0.002474  17.176100   0.006003   0.003435  27.445800  -2.153740  -4.137250  29.331900   0.004250  -0.003953  19.535000   0.003930  -0.002105  33.631200  -3.297870  -4.940250  50.660400   0.003850   0.005760  33.739800   0.003442  -0.001175   0.428150   0.477566   1.411630   0.653718   1.269860  11.607600  -5.593360  -3.739660   5.573020   0.000000   0.000000   0.000000   1.048120   0.054000  -3.540240   0.239395   1.672940  -7.023940 -10.379600   1.875540   0.517793  -0.000000   0.000000   0.000000
